<?xml version="1.0"?>
<svg xmlns="http://www.w3.org/2000/svg" xmlns:xlink="http://www.w3.org/1999/xlink" xmlns:svgjs="http://svgjs.com/svgjs" version="1.1" width="512" height="512" x="0" y="0" viewBox="0 0 64 64" style="enable-background:new 0 0 512 512" xml:space="preserve" class=""><circle r="32" cx="32" cy="32" fill="#4dc322" shape="circle"/><g transform="matrix(0.7,0,0,0.7,9.449968028068543,9.600000000000001)"><path xmlns="http://www.w3.org/2000/svg" d="m48 2h-40l-6 6v54h46z" fill="#bce4f8" data-original="#bce4f8" style="" class=""/><path xmlns="http://www.w3.org/2000/svg" d="m8 2-6 6v48h35a4 4 0 0 0 4-4v-50z" fill="#e4f5fd" data-original="#e4f5fd" style="" class=""/><path xmlns="http://www.w3.org/2000/svg" d="m2 8h6v-6z" fill="#bce4f8" data-original="#bce4f8" style="" class=""/><path xmlns="http://www.w3.org/2000/svg" d="m32 32 25-25 4 4-25 25-6 2z" fill="#9eb3d3" data-original="#2763bb" style="" class=""/><path xmlns="http://www.w3.org/2000/svg" d="m36 36-4-4-2 6z" fill="#3079e6" data-original="#3079e6" style="" class=""/><path xmlns="http://www.w3.org/2000/svg" d="m11 7h32v2h-32z" fill="#000000" data-original="#000000" style="" class=""/><path xmlns="http://www.w3.org/2000/svg" d="m7 13h36v2h-36z" fill="#000000" data-original="#000000" style="" class=""/><path xmlns="http://www.w3.org/2000/svg" d="m7 19h33v2h-33z" fill="#000000" data-original="#000000" style="" class=""/><path xmlns="http://www.w3.org/2000/svg" d="m7 31h20v2h-20z" fill="#000000" data-original="#000000" style="" class=""/><path xmlns="http://www.w3.org/2000/svg" d="m7 37h20v2h-20z" fill="#000000" data-original="#000000" style="" class=""/><path xmlns="http://www.w3.org/2000/svg" d="m7 43h36v2h-36z" fill="#000000" data-original="#000000" style="" class=""/><path xmlns="http://www.w3.org/2000/svg" d="m7 49h36v2h-36z" fill="#000000" data-original="#000000" style="" class=""/><path xmlns="http://www.w3.org/2000/svg" d="m7 55h32v2h-32z" fill="#000000" data-original="#000000" style="" class=""/><path xmlns="http://www.w3.org/2000/svg" d="m41 55h2v2h-2z" fill="#000000" data-original="#000000" style="" class=""/><path xmlns="http://www.w3.org/2000/svg" d="m61.707 10.293-4-4a1 1 0 0 0 -1.414 0l-7.293 7.293v-11.586a1 1 0 0 0 -1-1h-40a1 1 0 0 0 -.707.293l-6 6a1 1 0 0 0 -.293.707v54a1 1 0 0 0 1 1h46a1 1 0 0 0 1-1v-37.586l12.707-12.707a1 1 0 0 0 0-1.414zm-54.707-5.879v2.586h-2.586zm40 56.586h-44v-52h5a1 1 0 0 0 1-1v-5h38v12.586l-9.414 9.414h-30.586v2h28.586l-4.293 4.293a1.013 1.013 0 0 0 -.242.391l-2 6a1 1 0 0 0 .949 1.316 1.014 1.014 0 0 0 .316-.051l6-2a1.013 1.013 0 0 0 .391-.242l10.293-10.293zm-14.563-27.149 1.712 1.712-2.568.856zm3.563.735-2.586-2.586 23.586-23.586 2.586 2.586z" fill="#000000" data-original="#000000" style="" class=""/><path xmlns="http://www.w3.org/2000/svg" d="m38 37h5v2h-5z" fill="#000000" data-original="#000000" style="" class=""/></g></svg>
