<?xml version="1.0"?>
<svg xmlns="http://www.w3.org/2000/svg" xmlns:xlink="http://www.w3.org/1999/xlink" xmlns:svgjs="http://svgjs.com/svgjs" version="1.1" width="512" height="512" x="0" y="0" viewBox="0 0 64 64" style="enable-background:new 0 0 512 512" xml:space="preserve" class=""><circle r="32" cx="32" cy="32" fill="#df5252" shape="circle"/><g transform="matrix(0.7,0,0,0.7,9.600000000000001,9.600000894069673)"><path xmlns="http://www.w3.org/2000/svg" d="m25 7h36v54h-36z" fill="#efefec" data-original="#ffe027" style="" class=""/><path xmlns="http://www.w3.org/2000/svg" d="m57 57h-42v-54h30l12 13z" fill="#efefec" data-original="#ffe027" style="" class=""/><path xmlns="http://www.w3.org/2000/svg" d="m57 16h-12v-13z" fill="#d5d5d5" data-original="#ffcd25" style="" class=""/><path xmlns="http://www.w3.org/2000/svg" d="m12 22v4h4v-4h10v4h4v-4a4 4 0 0 0 -4-4h-10a4 4 0 0 0 -4 4z" fill="#7c7c7c" data-original="#e8e5fb" style="" class=""/><path xmlns="http://www.w3.org/2000/svg" d="m3 26h36v6h-36z" fill="#757478" data-original="#acabb1" style="" class=""/><path xmlns="http://www.w3.org/2000/svg" d="m35 61h-28l-2-29h32z" fill="#8d8b8f" data-original="#d8d7da" style="" class=""/><g xmlns="http://www.w3.org/2000/svg" fill="#787680"><path d="m11 37h4v19h-4z" fill="#3c3c3c" data-original="#787680" style="" class=""/><path d="m19 37h4v19h-4z" fill="#3c3c3c" data-original="#787680" style="" class=""/><path d="m27 37h4v19h-4z" fill="#3c3c3c" data-original="#787680" style="" class=""/></g><path xmlns="http://www.w3.org/2000/svg" d="m61 6h-11.87l-3.4-3.68a.99.99 0 0 0 -.73-.32h-30a1 1 0 0 0 -1 1v14.42a5.014 5.014 0 0 0 -3 4.58v3h-8a1 1 0 0 0 -1 1v6a1 1 0 0 0 1 1h1.07l1.93 28.07a1 1 0 0 0 1 .93h54a1 1 0 0 0 1-1v-54a1 1 0 0 0 -1-1zm-15-.44 8.72 9.44h-8.72zm-30-1.56h28v12a1 1 0 0 0 1 1h11v39h-19.65l1.58-23h1.07a1 1 0 0 0 1-1v-6a1 1 0 0 0 -1-1h-8v-3a5 5 0 0 0 -5-5h-10zm-3 18a3.009 3.009 0 0 1 3-3h10a3.009 3.009 0 0 1 3 3v3h-2v-3a1 1 0 0 0 -1-1h-10a1 1 0 0 0 -1 1v3h-2zm12 1v2h-8v-2zm-21 8v-4h34v4zm30.07 29h-26.14l-1.86-27h29.86zm25.93 0h-23.93l.14-2h20.79a1 1 0 0 0 1-1v-41a.977.977 0 0 0 -.27-.68l-6.75-7.32h9.02z" fill="#000000" data-original="#000000" style="" class=""/><path xmlns="http://www.w3.org/2000/svg" d="m20 7h6v2h-6z" fill="#000000" data-original="#000000" style="" class=""/><path xmlns="http://www.w3.org/2000/svg" d="m29 7h12v2h-12z" fill="#000000" data-original="#000000" style="" class=""/><path xmlns="http://www.w3.org/2000/svg" d="m20 12h21v2h-21z" fill="#000000" data-original="#000000" style="" class=""/><path xmlns="http://www.w3.org/2000/svg" d="m15 36h-4a1 1 0 0 0 -1 1v19a1 1 0 0 0 1 1h4a1 1 0 0 0 1-1v-19a1 1 0 0 0 -1-1zm-1 19h-2v-17h2z" fill="#000000" data-original="#000000" style="" class=""/><path xmlns="http://www.w3.org/2000/svg" d="m23 36h-4a1 1 0 0 0 -1 1v19a1 1 0 0 0 1 1h4a1 1 0 0 0 1-1v-19a1 1 0 0 0 -1-1zm-1 19h-2v-17h2z" fill="#000000" data-original="#000000" style="" class=""/><path xmlns="http://www.w3.org/2000/svg" d="m31 36h-4a1 1 0 0 0 -1 1v19a1 1 0 0 0 1 1h4a1 1 0 0 0 1-1v-19a1 1 0 0 0 -1-1zm-1 19h-2v-17h2z" fill="#000000" data-original="#000000" style="" class=""/></g></svg>
